<svg width="24" height="24" viewBox="0 0 24 24" fill="none" xmlns="http://www.w3.org/2000/svg">
<path d="M23.5033 7.24932C23.4903 6.27555 23.308 5.31146 22.9646 4.40018C22.6667 3.63151 22.2118 2.93343 21.6289 2.35053C21.046 1.76763 20.348 1.31273 19.5793 1.01489C18.6797 0.677205 17.7294 0.494614 16.7687 0.474889C15.5319 0.419603 15.1397 0.404175 12 0.404175C8.86029 0.404175 8.45787 0.404175 7.23001 0.474889C6.26978 0.494759 5.31988 0.677348 4.42072 1.01489C3.65194 1.31252 2.95375 1.76735 2.37082 2.35027C1.78789 2.9332 1.33306 3.63139 1.03544 4.40018C0.697075 5.29906 0.514879 6.24917 0.496721 7.20946C0.441435 8.4476 0.424721 8.83975 0.424721 11.9795C0.424721 15.1192 0.424721 15.5203 0.496721 16.7495C0.516006 17.7112 0.697292 18.66 1.03544 19.5613C1.33356 20.3299 1.78873 21.0278 2.37185 21.6105C2.95498 22.1931 3.65323 22.6478 4.42201 22.9453C5.31871 23.2966 6.26877 23.4922 7.23129 23.5239C8.46944 23.5792 8.86158 23.5959 12.0013 23.5959C15.141 23.5959 15.5434 23.5959 16.7713 23.5239C17.7319 23.505 18.6823 23.3228 19.5819 22.9852C20.3503 22.687 21.0482 22.232 21.6311 21.6491C22.2139 21.0663 22.669 20.3684 22.9672 19.5999C23.3053 18.6999 23.4866 17.751 23.5059 16.788C23.5612 15.5512 23.5779 15.159 23.5779 12.018C23.5753 8.87832 23.5753 8.47975 23.5033 7.24932ZM11.9923 17.9169C8.70858 17.9169 6.04844 15.2567 6.04844 11.973C6.04844 8.68932 8.70858 6.02918 11.9923 6.02918C13.5687 6.02918 15.0805 6.6554 16.1952 7.77009C17.3099 8.88478 17.9362 10.3966 17.9362 11.973C17.9362 13.5494 17.3099 15.0613 16.1952 16.176C15.0805 17.2907 13.5687 17.9169 11.9923 17.9169ZM18.1727 7.19532C17.9907 7.19549 17.8104 7.15975 17.6421 7.09016C17.4739 7.02057 17.321 6.91848 17.1923 6.78975C17.0636 6.66101 16.9615 6.50815 16.8919 6.33992C16.8223 6.17168 16.7866 5.99138 16.7867 5.80932C16.7867 5.62739 16.8226 5.44724 16.8922 5.27917C16.9618 5.11109 17.0638 4.95836 17.1925 4.82972C17.3211 4.70108 17.4738 4.59904 17.6419 4.52942C17.81 4.45979 17.9902 4.42396 18.1721 4.42396C18.354 4.42396 18.5342 4.45979 18.7022 4.52942C18.8703 4.59904 19.023 4.70108 19.1517 4.82972C19.2803 4.95836 19.3824 5.11109 19.452 5.27917C19.5216 5.44724 19.5574 5.62739 19.5574 5.80932C19.5574 6.5756 18.9377 7.19532 18.1727 7.19532Z" fill="url(#paint0_linear_327_345)"/>
<path d="M11.9923 15.8341C14.1247 15.8341 15.8533 14.1054 15.8533 11.9731C15.8533 9.84069 14.1247 8.11206 11.9923 8.11206C9.85992 8.11206 8.13129 9.84069 8.13129 11.9731C8.13129 14.1054 9.85992 15.8341 11.9923 15.8341Z" fill="url(#paint1_linear_327_345)"/>
<defs>
<linearGradient id="paint0_linear_327_345" x1="2.5" y1="21.5" x2="21.5" y2="2.5" gradientUnits="userSpaceOnUse">
<stop stop-color="#CDD016"/>
<stop offset="1" stop-color="#D00069"/>
</linearGradient>
<linearGradient id="paint1_linear_327_345" x1="9.5" y1="14.5" x2="14.5" y2="9.5" gradientUnits="userSpaceOnUse">
<stop stop-color="#CDD016"/>
<stop offset="1" stop-color="#D00069"/>
</linearGradient>
</defs>
</svg>
