<svg width="64" height="64" viewBox="0 0 64 64" fill="none" xmlns="http://www.w3.org/2000/svg">
<g clip-path="url(#clip0_206_243)">
<path d="M16.7905 48.6135V55.3196C16.7905 56.6438 17.8642 57.7176 19.1884 57.7176C20.5126 57.7176 21.5864 56.6438 21.5864 55.3196V38.612L27.3589 42.5456V50.6208C27.3589 51.9451 28.4326 53.0183 29.7568 53.0183C31.081 53.0183 32.1543 51.9451 32.1543 50.6208V45.8137L44.3921 54.1526V60.3186C44.3921 61.6434 45.4659 62.7166 46.7901 62.7166C48.1143 62.7166 49.1876 61.6429 49.1876 60.3186V57.4207L57.0172 62.7552V9.80377C38.8325 9.80377 22.7895 18.9708 13.2553 32.9352L16.7905 35.3439V38.6125" fill="#FFE192"/>
<path d="M57.0172 9.80377V3.7593C57.0172 2.33254 55.8277 1.19191 54.402 1.25246C45.2701 1.63967 36.3262 4.05179 28.2256 8.32573C20.1264 12.5987 13.0917 18.6168 7.62537 25.9303C6.7699 27.0744 7.04187 28.7013 8.22254 29.5055L13.2558 32.9352C22.7895 18.9708 38.8325 9.80377 57.0172 9.80377Z" fill="#FF6E37"/>
<path d="M34.1304 28.4488C32.9199 25.6354 29.6582 24.336 26.8447 25.5465C24.0312 26.7569 22.7319 30.0187 23.9423 32.8322C25.1523 35.6456 28.4145 36.945 31.228 35.7345C34.0415 34.5245 35.3408 31.2623 34.1304 28.4488Z" fill="#FF5A5A"/>
<path d="M52.6471 31.0109C51.4371 28.1974 48.1749 26.898 45.3614 28.1085C42.5479 29.319 41.2486 32.5807 42.459 35.3942C43.6695 38.2077 46.9312 39.5075 49.7447 38.297C52.5582 37.0866 53.8575 33.8243 52.6471 31.0109Z" fill="#FF5A5A"/>
<path d="M55.7823 43.8268C52.9693 45.0373 51.6695 48.299 52.88 51.1125C53.6471 52.8957 55.2384 54.0696 57.0172 54.3826V43.4587C56.6012 43.5319 56.1871 43.6525 55.7823 43.8268Z" fill="#FF5A5A"/>
<path d="M45.6348 46.9387C44.4244 44.1257 41.1626 42.8259 38.3492 44.0363C36.6743 44.757 35.5366 46.2043 35.1445 47.8508L43.7061 53.6848C45.8292 52.2126 46.6954 49.4035 45.6348 46.9387Z" fill="#FF5A5A"/>
<path d="M48.3023 10.5191C45.3096 11.0147 42.4019 11.7613 39.6011 12.7364C39.0786 14.0533 39.0572 15.5694 39.6617 16.9732C40.8721 19.7867 44.1338 21.0865 46.9473 19.876C49.7608 18.6656 51.0601 15.4034 49.8497 12.5899C49.4918 11.7583 48.9542 11.0606 48.3023 10.5191Z" fill="#FF5A5A"/>
<path d="M57.109 1.04544C56.3624 0.329612 55.3824 -0.0400186 54.3492 0.0034386C45.0801 0.396995 35.8447 2.89212 27.642 7.22027C19.4408 11.5474 12.1727 17.7584 6.62389 25.1818C6.00426 26.0104 5.7567 27.0294 5.92711 28.0504C6.09801 29.0719 6.66295 29.9557 7.51842 30.5387L12.5516 33.9684L12.5521 33.9689L15.5404 36.0051V38.613C15.5404 39.3034 16.1 39.863 16.7904 39.863C17.4809 39.863 18.0404 39.3034 18.0404 38.613V35.3444C18.0404 34.9309 17.8359 34.5441 17.4945 34.3112L15.0072 32.6164C16.1098 31.0817 17.2963 29.611 18.5575 28.2038C19.8539 26.757 21.2348 25.379 22.6923 24.0934C24.0952 22.8561 25.5561 21.6871 27.0815 20.6036C28.6665 19.4781 30.3149 18.4488 32.0132 17.503C33.7143 16.5548 35.479 15.712 37.2798 14.9698C37.5054 14.877 37.7319 14.7852 37.959 14.6949C37.9468 15.6363 38.1304 16.5772 38.5132 17.4674C39.2305 19.1349 40.5542 20.4235 42.2407 21.0948C43.0547 21.4196 43.9063 21.5812 44.7569 21.5812C45.6685 21.5812 46.5791 21.3951 47.4415 21.0245C49.1089 20.3068 50.397 18.983 51.0689 17.297C51.7408 15.6104 51.7154 13.7638 50.9981 12.0963C50.9024 11.8731 50.7935 11.6563 50.6749 11.4449C52.3648 11.2359 54.065 11.1114 55.7672 11.0704V42.4963C53.7374 43.1926 52.1412 44.8318 51.4927 46.8777C50.775 49.1428 51.3243 51.6804 52.9073 53.4505C53.6793 54.3138 54.672 54.9695 55.7672 55.3445V60.3909L49.8922 56.3875C49.5089 56.1268 49.0132 56.0984 48.6036 56.3152C48.1944 56.532 47.938 56.9573 47.938 57.4207V60.3187C47.938 60.952 47.4229 61.4666 46.7901 61.4666C46.1573 61.4666 45.6421 60.9515 45.6421 60.3187V54.1526C45.6421 53.9993 45.6138 53.8499 45.5616 53.7107C47.3218 51.7757 47.8516 48.928 46.7833 46.4451C45.3028 43.0032 41.2974 41.4074 37.855 42.8884C36.4316 43.5007 35.271 44.5886 34.5503 45.9333L32.8584 44.7805C32.4756 44.5198 31.98 44.4919 31.5703 44.7082C31.1606 44.925 30.9043 45.3503 30.9043 45.8132V50.6209C30.9043 51.2537 30.3896 51.7683 29.7568 51.7683C29.124 51.7683 28.6089 51.2532 28.6089 50.6209V42.5456C28.6089 42.1321 28.4043 41.7453 28.063 41.5124L22.29 37.5793C21.9076 37.3186 21.4116 37.2902 21.0019 37.507C20.5922 37.7233 20.3364 38.1491 20.3364 38.612V55.3196C20.3364 55.9529 19.8212 56.4676 19.1884 56.4676C18.5556 56.4676 18.0409 55.9524 18.0409 55.3196V48.6135C18.0409 47.9231 17.4809 47.3635 16.7904 47.3635C16.1 47.3635 15.5404 47.9231 15.5404 48.6135V55.3196C15.5404 57.3313 17.1772 58.9676 19.1884 58.9676C21.1996 58.9676 22.8364 57.3313 22.8364 55.3196V40.9768L26.1088 43.2063V50.6209C26.1088 52.6321 27.7451 54.2683 29.7568 54.2683C31.768 54.2683 33.4048 52.6321 33.4048 50.6209V48.178L34.4399 48.8836C34.4404 48.8836 34.4404 48.884 34.4409 48.884L43.0025 54.7181L43.1421 54.8133V60.3187C43.1421 62.3299 44.7784 63.9666 46.7901 63.9666C48.8013 63.9666 50.4381 62.3299 50.4381 60.3187V59.7845L56.3136 63.7884C57.129 64.3441 58.2677 63.7376 58.2677 62.7552V3.7598C58.2672 2.72513 57.8561 1.76126 57.109 1.04544ZM36.6299 47.3503C37.0664 46.3831 37.8428 45.615 38.8428 45.1848C41.0191 44.2488 43.5503 45.2571 44.4869 47.4329C45.1792 49.0432 44.8101 50.8963 43.628 52.1189L39.0029 48.9675L36.6299 47.3503ZM8.39343 27.6393C8.3363 27.297 8.41931 26.9562 8.62634 26.6784C13.9545 19.5504 20.9335 13.5865 28.8086 9.43122C36.686 5.27495 45.5538 2.87894 54.4547 2.5015C54.4732 2.50052 54.4918 2.50003 54.5098 2.50003C54.835 2.50003 55.1422 2.62308 55.379 2.85013C55.629 3.09037 55.7667 3.41312 55.7667 3.75932V8.56793C53.7681 8.61334 51.7716 8.77155 49.7906 9.03717C49.2256 9.11335 48.6597 9.19294 48.0977 9.28571C45.0752 9.7862 42.0782 10.5499 39.19 11.5557C37.1465 12.2672 35.1475 13.1231 33.2007 14.066C31.2251 15.0221 29.3076 16.1153 27.4702 17.3155C25.663 18.4962 23.9272 19.7784 22.268 21.1588C20.5942 22.5519 19.0151 24.0553 17.519 25.6369C16.0502 27.1901 14.683 28.842 13.4115 30.5592C13.2523 30.7741 13.0946 30.9899 12.9389 31.2067L8.92614 28.4723C8.64001 28.2775 8.45056 27.9816 8.39343 27.6393ZM48.7462 16.3712C48.3213 17.4371 47.5074 18.274 46.4532 18.7276C45.399 19.1808 44.232 19.1969 43.166 18.7721C42.1001 18.3478 41.2632 17.5333 40.8096 16.4791C40.4321 15.6012 40.3584 14.6441 40.5899 13.733C42.4654 13.1041 44.3794 12.5753 46.3165 12.1729C46.8458 12.0631 47.3755 11.9581 47.9073 11.8629C48.2393 12.2193 48.5054 12.628 48.7012 13.0841C49.1548 14.1383 49.1705 15.3053 48.7462 16.3712ZM54.0284 50.6184C53.5748 49.5647 53.5592 48.3972 53.9835 47.3313C54.337 46.4441 54.9605 45.7161 55.7672 45.2351V52.6067C55.0035 52.1502 54.3912 51.4617 54.0284 50.6184Z" fill="black"/>
<path d="M26.5215 36.9533C27.3354 37.2775 28.187 37.4391 29.0376 37.4391C29.9492 37.4391 30.8599 37.2536 31.7222 36.8825C35.1641 35.4015 36.7598 31.3961 35.2788 27.9542C34.5615 26.2867 33.2378 24.9982 31.5513 24.3268C29.8652 23.6549 28.018 23.6798 26.3506 24.3976C24.6831 25.1149 23.395 26.4386 22.7231 28.1251C22.0512 29.8112 22.0766 31.6583 22.7939 33.3258C23.5112 34.9933 24.8349 36.2814 26.5215 36.9533ZM25.0459 29.0504C25.4702 27.9845 26.2846 27.1476 27.3388 26.694C27.8838 26.4596 28.4595 26.3419 29.0356 26.3419C29.5732 26.3419 30.1113 26.4444 30.626 26.6495C31.6919 27.0738 32.5288 27.8883 32.9824 28.942C33.9185 31.1178 32.9097 33.6496 30.7339 34.5856C29.6802 35.0392 28.5127 35.0548 27.4468 34.6305C26.3808 34.2057 25.5439 33.3913 25.0908 32.3375C24.6372 31.2833 24.6211 30.1158 25.0459 29.0504Z" fill="black"/>
<path d="M45.0381 39.5149C45.8521 39.8396 46.7037 40.0012 47.5543 40.0012C48.4659 40.0012 49.3765 39.8151 50.2389 39.444C51.9063 38.7268 53.1944 37.403 53.8663 35.717C54.5382 34.0304 54.5133 32.1838 53.7955 30.5158C53.0782 28.8488 51.7545 27.5602 50.0684 26.8883C48.3819 26.2164 46.5347 26.2418 44.8677 26.9591C43.2002 27.6764 41.9117 29.0001 41.2398 30.6867C40.5684 32.3732 40.5933 34.2199 41.3106 35.8874C42.0279 37.5549 43.3516 38.8435 45.0381 39.5149ZM43.5626 31.612C43.9869 30.5461 44.8013 29.7096 45.8555 29.256C46.4005 29.0216 46.9761 28.904 47.5523 28.904C48.0899 28.904 48.628 29.006 49.1427 29.2111C50.2086 29.6359 51.0455 30.4504 51.4991 31.5041C51.9522 32.5583 51.9684 33.7258 51.5435 34.7917C51.1187 35.8571 50.3048 36.694 49.2506 37.1477C48.1969 37.6008 47.0294 37.6169 45.9634 37.1921C44.8975 36.7678 44.0606 35.9533 43.607 34.8996C43.1539 33.8454 43.1382 32.6779 43.5626 31.612Z" fill="black"/>
<path d="M16.7914 44.864C17.3202 44.864 17.8017 44.5168 17.9731 44.0183C18.145 43.5187 17.9741 42.9416 17.5522 42.6208C17.1474 42.3132 16.5859 42.2824 16.1489 42.5417C15.6967 42.8098 15.4609 43.3532 15.5678 43.8674C15.6874 44.4401 16.2055 44.864 16.7914 44.864Z" fill="black"/>
</g>
<defs>
<clipPath id="clip0_206_243">
<rect width="64" height="64" fill="white"/>
</clipPath>
</defs>
</svg>
